HIERARCHY
ROOT root
{
	OFFSET	0	13.1	24.9
	CHANNELS 6  Xposition Yposition Zposition Xrotation Yrotation Zrotation
	JOINT spine_1
	{
		OFFSET	0	9.99999	0
		CHANNELS 3  Xrotation Yrotation Zrotation
		JOINT spine_2
		{
			OFFSET	0	112	-10
			CHANNELS 3  Xrotation Yrotation Zrotation
			JOINT spine_3
			{
				OFFSET	0	206.5	19.3
				CHANNELS 3  Xrotation Yrotation Zrotation
				JOINT spine_4
				{
					OFFSET	0	110.4	14.6
					CHANNELS 3  Xrotation Yrotation Zrotation
					JOINT neck_1
					{
						OFFSET	0	71.8	-50.3
						CHANNELS 3  Xrotation Yrotation Zrotation
						JOINT neck_2
						{
							OFFSET	0	86.2	-25.8
							CHANNELS 3  Xrotation Yrotation Zrotation
							JOINT head_ee
							{
								OFFSET	0	179.8	-8.7
								CHANNELS 3  Xrotation Yrotation Zrotation
								End Site
								{
									OFFSET	1	0	0
								}
							}
						}
					}
					JOINT left_clavicle
					{
						OFFSET	-43.2	22.4	-70.8
						CHANNELS 3  Xrotation Yrotation Zrotation
						JOINT left_shoulder
						{
							OFFSET	-93.9	-5.79999	48.7
							CHANNELS 3  Xrotation Yrotation Zrotation
							JOINT left_elbow
							{
								OFFSET	-291.4	-30.8	15.2
								CHANNELS 3  Xrotation Yrotation Zrotation
								JOINT left_lowarm_twist
								{
									OFFSET	-110.7	-3.89999	13.6
									CHANNELS 3  Xrotation Yrotation Zrotation
									JOINT left_hand
									{
										OFFSET	-110.7	-3.89999	13.6
										CHANNELS 3  Xrotation Yrotation Zrotation
										JOINT left_ee
										{
											OFFSET	-80.8	-5.10001	12.1
											CHANNELS 3  Xrotation Yrotation Zrotation
											End Site
											{
												OFFSET	1	0	0
											}
										}
									}
								}
							}
						}
					}
					JOINT right_clavicle
					{
						OFFSET	43.2	22.4	-70.8
						CHANNELS 3  Xrotation Yrotation Zrotation
						JOINT right_shoulder
						{
							OFFSET	93.9	-5.79999	48.7
							CHANNELS 3  Xrotation Yrotation Zrotation
							JOINT right_elbow
							{
								OFFSET	291.4	-30.8	15.2
								CHANNELS 3  Xrotation Yrotation Zrotation
								JOINT right_lowarm_twist
								{
									OFFSET	110.7	-3.89999	13.6
									CHANNELS 3  Xrotation Yrotation Zrotation
									JOINT right_hand
									{
										OFFSET	110.7	-3.89999	13.6
										CHANNELS 3  Xrotation Yrotation Zrotation
										JOINT right_ee
										{
											OFFSET	80.8	-5.10001	12.1
											CHANNELS 3  Xrotation Yrotation Zrotation
											End Site
											{
												OFFSET	1	0	0
											}
										}
									}
								}
							}
						}
					}
				}
			}
		}
	}
	JOINT left_hip
	{
		OFFSET	-82.8	-127.5	0.300001
		CHANNELS 3  Xrotation Yrotation Zrotation
		JOINT left_knee
		{
			OFFSET	-28.2	-396.7	2.2
			CHANNELS 3  Xrotation Yrotation Zrotation
			JOINT left_ankle
			{
				OFFSET	-11.7	-411.3	35.4
				CHANNELS 3  Xrotation Yrotation Zrotation
				JOINT left_toes
				{
					OFFSET	0	-60	-88.6
					CHANNELS 3  Xrotation Yrotation Zrotation
					JOINT left_foot_ee
					{
						OFFSET	-22.5	-16.5	-42.2
						CHANNELS 3  Xrotation Yrotation Zrotation
						End Site
						{
							OFFSET	1	0	0
						}
					}
				}
			}
		}
	}
	JOINT right_hip
	{
		OFFSET	82.8	-127.5	0.300001
		CHANNELS 3  Xrotation Yrotation Zrotation
		JOINT right_knee
		{
			OFFSET	28.2	-396.7	2.2
			CHANNELS 3  Xrotation Yrotation Zrotation
			JOINT right_ankle
			{
				OFFSET	11.7	-411.3	35.4
				CHANNELS 3  Xrotation Yrotation Zrotation
				JOINT right_toes
				{
					OFFSET	0	-60	-88.6
					CHANNELS 3  Xrotation Yrotation Zrotation
					JOINT right_foot_ee
					{
						OFFSET	22.5	-16.5	-42.2
						CHANNELS 3  Xrotation Yrotation Zrotation
						End Site
						{
							OFFSET	1	0	0
						}
					}
				}
			}
		}
	}
}
MOTION
Frames: 11
Frame Time: 0.02
842.700969504 614.935 -1826.5078516 -7.45083809246 13.1196179575 12.7382372617 5.32392 0.106716 -1.93502 5.32598 0.229608 -1.92432 5.31639 0.456581 -1.88343 5.31147 0.153457 -1.93188 -26.8971 7.85893 7.52466 -27.0675 12.2194 11.2491 -0.0 0.0 -0.0 -6.81633 11.2377 -10.4213 2.79963 -18.2467 73.4416 1.16341 -29.9547 0.311253 -32.759 -2.21604 3.49361 -2.60438 4.03488 -15.6802 -0.0 0.0 -0.0 3.68116 -3.00692 -7.25488 -24.6702 29.8722 -64.3921 0.51088 14.2021 -0.0636436 -25.01 1.51561 -2.79007 1.36655 0.527328 -8.95385 0.0 0.0 0.0 20.8813 0.894118 -16.6037 -11.0993 0.295526 1.67508 13.3471 20.9653 -1.92578 12.1921 -0.0 -0.0 -0.0 0.0 -0.0 21.5111 20.1425 -10.384 -23.4476 -0.238795 -3.56525 20.4545 -27.7655 2.97815 -27.564 0.0 0.0 0.0 0.0 0.0 
817.596436927 609.995 -1855.5198696 -4.22728366161 13.0133554839 12.3008056989 4.52909 -0.330855 -1.66514 4.5306 -0.224243 -1.68281 4.53608 0.000155747 -1.69768 4.53216 -0.267925 -1.67641 -21.0052 8.03097 3.88899 -21.2468 13.5906 7.13245 -0.0 0.0 -0.0 -5.97401 12.0889 -8.70427 3.1437 -15.3015 70.6794 1.09727 -28.5256 0.278939 -35.6942 -2.50531 3.73458 -2.6458 -0.794352 -18.3583 -0.0 0.0 -0.0 3.38952 0.80237 -6.48526 -26.2511 29.3083 -65.8057 0.607401 16.7461 -0.0894021 -24.2682 1.4537 -2.71793 1.44819 -2.7352 -10.8085 0.0 0.0 0.0 17.9206 3.54275 -17.2452 -14.8403 0.321406 2.24838 19.3826 21.444 -2.73806 13.1051 -0.0 -0.0 -0.0 0.0 -0.0 17.2728 14.3571 -11.5784 -12.7586 -0.311625 -1.92917 22.2403 -28.7189 3.23492 -29.0315 0.0 0.0 0.0 0.0 0.0 
807.445100748 612.288 -1874.81732773 -3.46013148405 12.4176260948 11.6875868535 4.26442 -0.376162 -1.43645 4.26553 -0.284005 -1.45747 4.27203 -0.0820568 -1.48261 4.2691 -0.315152 -1.45105 -20.0584 7.13979 -0.194783 -20.3404 13.8613 2.84916 -0.0 0.0 -0.0 -4.02928 11.6464 -5.45521 -0.255079 -13.6391 66.7531 1.15364 -29.7462 0.30639 -38.2362 -2.76557 3.93113 -2.59261 -5.20345 -20.0903 -0.0 0.0 -0.0 2.88176 1.62479 -5.43901 -26.3919 29.4964 -67.5385 0.700034 19.1254 -0.117934 -23.4323 1.38508 -2.63569 0.736996 -2.25225 -5.84611 0.0 0.0 0.0 16.7143 3.88649 -16.9897 -15.0663 0.321769 2.28306 23.0636 22.3433 -3.21978 12.838 -0.0 -0.0 -0.0 0.0 -0.0 15.4001 11.0338 -10.848 -8.35758 -0.252825 -1.25658 23.0587 -28.542 3.33811 -26.3689 0.0 0.0 0.0 0.0 0.0 
805.950494377 608.832 -1881.23871039 -3.28390951288 10.9232535651 11.6778600562 4.18052 -0.482532 -1.34596 4.18144 -0.395915 -1.37393 4.19036 -0.202354 -1.41544 4.18781 -0.423336 -1.36574 -18.7825 6.47124 -2.30041 -19.0161 13.6734 0.454976 -0.0 0.0 -0.0 -3.01688 11.5626 -3.74124 -1.03821 -13.3903 65.1931 1.10372 -28.6667 0.282026 -38.438 -2.7866 3.94623 -2.75852 -4.44447 -20.925 -0.0 0.0 -0.0 2.8184 2.59494 -5.24377 -26.5361 29.3233 -67.0004 0.75738 20.5652 -0.137404 -23.1666 1.36351 -2.60934 0.625856 -2.44947 -5.18535 0.0 0.0 0.0 16.3138 5.81156 -17.1915 -12.9753 0.313183 1.96237 26.0374 22.553 -3.58835 14.4016 -0.0 -0.0 -0.0 0.0 -0.0 15.1621 9.98495 -10.3549 -5.3681 -0.183502 -0.803109 21.9402 -28.2358 3.18476 -25.2128 0.0 0.0 0.0 0.0 0.0 
807.576529354 607.545 -1885.75639978 -3.58205167503 10.2707751435 11.9173265235 4.11017 -0.481972 -1.38325 4.11115 -0.392984 -1.41111 4.12024 -0.192539 -1.45209 4.11754 -0.419431 -1.40348 -18.0699 5.98156 -4.36556 -18.2567 13.8654 -1.75367 -0.0 0.0 -0.0 -2.15537 11.5886 -2.27185 -1.19955 -13.153 64.0606 1.15789 -29.8369 0.308499 -38.3435 -2.77674 3.93917 -2.71369 -5.26582 -20.9913 -0.0 0.0 -0.0 2.91873 3.18091 -5.39889 -26.5904 29.1927 -67.2461 0.78749 21.3106 -0.148164 -22.9409 1.34529 -2.58688 0.440438 -2.61486 -4.0196 0.0 0.0 0.0 16.0822 6.28466 -17.0518 -11.5443 0.300565 1.74317 26.7712 22.7574 -3.68006 14.5811 -0.0 -0.0 -0.0 0.0 -0.0 16.4208 9.50603 -10.0781 -3.92486 -0.141583 -0.585588 22.6407 -27.4826 3.26024 -24.5298 0.0 0.0 0.0 0.0 0.0 
779.650887468 605.629 -1895.04082421 -4.77511228317 16.5567071678 11.250174983 3.6151 -0.436051 -1.41456 3.61615 -0.345165 -1.43943 3.62435 -0.128465 -1.47464 3.62149 -0.359721 -1.43586 -14.5838 0.560946 -4.03042 -14.5481 3.49544 -3.63594 -0.0 0.0 -0.0 1.4259 11.2133 3.74265 -9.64897 -15.2523 61.0225 1.20234 -30.7771 0.330933 -38.7682 -2.82112 3.97079 -1.36974 -6.87034 -12.2516 -0.0 0.0 -0.0 2.72503 5.69258 -4.81807 -25.4553 29.6177 -67.5737 0.891717 23.8322 -0.18818 -18.3728 0.996081 -2.1176 -0.0232445 3.27496 1.54189 0.0 0.0 0.0 15.9513 12.0751 -15.1682 -8.33809 0.25245 1.25362 32.7093 20.8007 -4.3161 20.1047 -0.0 -0.0 -0.0 0.0 -0.0 20.9559 8.85483 -7.74905 -1.73141 -0.0674082 -0.257151 30.0675 -20.0053 4.01164 -19.1236 0.0 0.0 0.0 0.0 0.0 
779.357073833 610.16 -1894.56113073 -5.38007646286 17.1793136998 11.2491971475 3.48962 -0.365927 -1.58264 3.49098 -0.264491 -1.60271 3.4978 -0.0209085 -1.62425 3.49423 -0.277132 -1.60057 -15.0532 -0.663801 -2.41493 -15.0368 0.163275 -2.50071 -0.0 0.0 -0.0 1.9853 10.1832 4.61897 -11.0806 -14.6402 61.2239 1.21035 -30.9445 0.335041 -37.1841 -2.6568 3.85118 -1.01259 -7.8246 -10.211 -0.0 0.0 -0.0 2.62662 6.50057 -4.5531 -23.1158 29.8016 -68.3663 0.849381 22.8191 -0.171416 -18.1898 0.982882 -2.09823 0.0180532 2.88395 1.0983 0.0 0.0 0.0 16.5626 12.2901 -14.6737 -9.40697 0.271535 1.41652 29.2006 20.2075 -3.91744 19.814 -0.0 -0.0 -0.0 0.0 -0.0 21.6276 10.0926 -7.4428 -1.3932 -0.0548529 -0.206765 29.0082 -20.8494 3.90663 -17.3022 0.0 0.0 0.0 0.0 0.0 
780.449860885 610.16 -1895.90390899 -5.37163189531 16.8863960019 11.2203683238 3.48962 -0.365927 -1.58264 3.49098 -0.264491 -1.60271 3.4978 -0.0209085 -1.62425 3.49423 -0.277132 -1.60057 -15.0532 -0.663801 -2.41493 -15.0368 0.163275 -2.50071 -0.0 0.0 -0.0 1.9853 10.1832 4.61897 -11.0806 -14.6402 61.2239 1.21035 -30.9445 0.335041 -37.1841 -2.6568 3.85118 -1.01259 -7.8246 -10.211 -0.0 0.0 -0.0 2.62662 6.50057 -4.5531 -23.1158 29.8016 -68.3663 0.849381 22.8191 -0.171416 -18.1898 0.982882 -2.09823 0.0180532 2.88395 1.0983 0.0 0.0 0.0 16.5626 12.2901 -14.6737 -9.40697 0.271535 1.41652 29.2006 20.2075 -3.91744 19.814 -0.0 -0.0 -0.0 0.0 -0.0 21.6276 10.0926 -7.4428 -1.3932 -0.0548529 -0.206765 29.0082 -20.8494 3.90663 -17.3022 0.0 0.0 0.0 0.0 0.0 
759.507657652 622.178 -1887.39598963 -6.37404485628 26.5027585458 8.72078018308 2.91077 -0.347776 -0.778887 2.91106 -0.29751 -0.799437 2.91516 -0.165634 -0.836764 2.9143 -0.295703 -0.800107 -17.0263 -2.55589 0.156128 -17.0534 -4.99595 -0.788471 -0.0 0.0 -0.0 3.37366 10.075 7.01025 -16.7892 -16.0446 63.2767 1.00427 -26.4492 0.23601 -38.5394 -2.79719 3.9538 0.0775145 -8.3629 -3.02858 -0.0 0.0 -0.0 2.97734 6.41954 -5.27107 -20.2465 29.7797 -67.3323 0.916814 24.4254 -0.198439 -17.2658 0.91719 -1.99983 -0.202357 4.60556 3.31561 0.0 0.0 0.0 16.2332 12.9067 -10.8124 -12.2783 0.307722 1.85557 18.247 19.0272 -2.5647 20.374 -0.0 -0.0 -0.0 0.0 -0.0 19.5663 9.87632 -4.69105 -3.20526 -0.118637 -0.477536 24.8325 -19.1655 3.39121 -16.6322 0.0 0.0 0.0 0.0 0.0 
760.447857129 622.178 -1888.6827994 -6.35964032099 26.242388567 8.68835269249 2.91077 -0.347776 -0.778887 2.91106 -0.29751 -0.799437 2.91516 -0.165634 -0.836764 2.9143 -0.295703 -0.800107 -17.0263 -2.55589 0.156128 -17.0534 -4.99595 -0.788471 -0.0 0.0 -0.0 3.37366 10.075 7.01025 -16.7892 -16.0446 63.2767 1.00427 -26.4492 0.23601 -38.5394 -2.79719 3.9538 0.0775145 -8.3629 -3.02858 -0.0 0.0 -0.0 2.97734 6.41954 -5.27107 -20.2465 29.7797 -67.3323 0.916814 24.4254 -0.198439 -17.2658 0.91719 -1.99983 -0.202357 4.60556 3.31561 0.0 0.0 0.0 16.2332 12.9067 -10.8124 -12.2783 0.307722 1.85557 18.247 19.0272 -2.5647 20.374 -0.0 -0.0 -0.0 0.0 -0.0 19.5663 9.87632 -4.69105 -3.20526 -0.118637 -0.477536 24.8325 -19.1655 3.39121 -16.6322 0.0 0.0 0.0 0.0 0.0 
760.732313026 622.178 -1889.06969995 -6.35533841982 26.1639317893 8.67861008549 2.91077 -0.347776 -0.778887 2.91106 -0.29751 -0.799437 2.91516 -0.165634 -0.836764 2.9143 -0.295703 -0.800107 -17.0263 -2.55589 0.156128 -17.0534 -4.99595 -0.788471 -0.0 0.0 -0.0 3.37366 10.075 7.01025 -16.7892 -16.0446 63.2767 1.00427 -26.4492 0.23601 -38.5394 -2.79719 3.9538 0.0775145 -8.3629 -3.02858 -0.0 0.0 -0.0 2.97734 6.41954 -5.27107 -20.2465 29.7797 -67.3323 0.916814 24.4254 -0.198439 -17.2658 0.91719 -1.99983 -0.202357 4.60556 3.31561 0.0 0.0 0.0 16.2332 12.9067 -10.8124 -12.2783 0.307722 1.85557 18.247 19.0272 -2.5647 20.374 -0.0 -0.0 -0.0 0.0 -0.0 19.5663 9.87632 -4.69105 -3.20526 -0.118637 -0.477536 24.8325 -19.1655 3.39121 -16.6322 0.0 0.0 0.0 0.0 0.0 
